<svg width="320" height="320" viewBox="0 0 320 320" fill="none" xmlns="http://www.w3.org/2000/svg">
<path d="M227.815 16.9184L227.587 25.4916L254.88 19.8483V12.4038L227.815 16.9184ZM80.6804 48.6231V39.5027C70.7962 41.0304 49.5571 44.975 43.6289 48.6231C37.7006 52.2713 35.6486 54.8934 35.6486 66.2938V292.593C35.4547 295.067 37.4726 302.056 47.049 310.264C51.5864 314.163 56.6482 316.58 61.2198 318.028C66.293 319.647 70.7734 320.057 73.2701 319.954L271.638 288.603C272.345 288.466 273.063 288.386 273.804 288.307C276.028 288.067 278.365 287.816 280.759 285.753C283.666 283.268 283.643 281.056 283.609 278.525C283.609 278.286 283.609 278.035 283.609 277.773C284.179 201.389 284.977 47.7111 283.609 44.0629C282.241 40.4148 277.339 39.5027 275.058 39.5027C266.394 41.1444 182.145 55.8282 171.314 57.1735C149.311 59.9324 130.865 63.2385 115.372 66.0316C90.4164 70.512 73.1219 73.6243 60.9234 70.7742C57.1726 69.885 53.9007 68.4485 51.0392 66.2938C36.458 55.3608 64.3435 50.527 80.6804 48.6231Z" fill="#B7D58B"/>
<path d="M62.4194 318.028C67.4926 319.647 69.8411 319.886 71.916 320L71.6994 79.4956C72.4176 79.3587 266.579 49.2159 284.364 46.5368C284.284 44.9293 284.193 43.9603 284.102 43.7095C282.734 40.0613 278.538 39.5027 276.258 39.5027C267.594 41.1444 183.344 55.8282 172.514 57.1734C150.511 59.9323 132.065 63.2385 116.572 66.0316C91.616 70.512 74.3215 73.6243 62.123 70.7742C62.1116 92.3211 62.1116 289.207 62.4194 318.028Z" fill="#CEE3B0"/>
<path d="M182.157 5.65463L218.057 0L219.129 42.7746L182.613 49.0448L182.157 5.65463Z" fill="#16AE9F"/>
<path d="M136.562 13.4527L172.462 7.7981L173.533 50.5727L137.018 56.8429L136.562 13.4527Z" fill="#F0BB54"/>
<path d="M90.9663 21.6952L126.878 16.0405L127.938 58.8151L91.4223 65.0854L90.9663 21.6952Z" fill="#E54B6D"/>
<path d="M229.007 31.1169L228.893 40.4083L258.53 34.8322V25.1431L229.007 31.1169Z" fill="#50484B"/>
<path d="M102.402 113.264C102.402 113.264 128.04 113.731 146.745 109.116C165.458 104.51 185.083 94.8293 185.083 94.8293C185.083 94.8293 198.021 107.969 215.107 116.493C232.202 125.018 258.53 126.862 258.53 126.862C258.53 126.862 254.144 167.657 244.212 196.919C234.281 226.19 226.197 235.641 210.031 249.001C193.865 262.37 162.681 264.673 162.681 264.673C162.681 264.673 143.048 258.452 127.112 239.788C111.175 221.116 103.791 210.747 101.942 185.165C100.094 159.592 102.402 113.264 102.402 113.264Z" fill="#282426"/>
<path d="M185.915 102.809C185.915 102.809 199.346 115.511 216.944 123.136C234.542 130.762 252.831 130.992 252.831 130.992C252.831 130.992 244.498 178.812 237.547 199.6C230.605 220.388 216.713 238.876 201.66 247.421C186.615 255.966 163.919 258.974 163.919 258.974L169.017 220.158C169.017 220.158 174.873 221.081 185.334 223.018C196.027 225.73 204.551 227.668 204.551 227.668C204.551 227.668 206.315 213.774 195.234 208.195C184.309 205.588 171.561 202.599 171.561 202.599L185.915 102.809Z" fill="#F7ECD8"/>
<path d="M230.201 168.373C230.201 168.373 221.116 166.918 214.79 163.753C208.453 160.594 201.061 151.505 201.061 151.505C201.061 151.505 197.377 168.354 207.614 174.079C217.852 179.803 230.201 168.373 230.201 168.373Z" fill="#282426"/>
<path d="M171.562 202.606L169.078 220.114C169.078 220.114 156.948 219.159 147.926 207.806C138.895 196.454 141.48 187.742 141.48 187.742C141.48 187.742 147.904 195.638 154.666 197.707C161.428 199.777 171.562 202.606 171.562 202.606Z" fill="#F7ECD8"/>
<path d="M136.41 154.16C129.233 153.733 120.173 155.972 120.173 155.972C120.173 155.972 127.177 140.482 139.018 141.747C150.859 143.012 154.106 160.106 154.106 160.106C154.106 160.106 143.579 154.596 136.41 154.16Z" fill="#F7ECD8"/>
</svg>
