<svg width="686" height="281" viewBox="0 0 686 281" fill="none" xmlns="http://www.w3.org/2000/svg" id="dramate-logo-id"
  class="dramate-logo dramate-logo--icon" aria-labelledby="dramate-logo-id__access-title dramate-logo-id__access-desc">
  <title id="dramate-logo-id__access-title">Dramate</title>
  <desc id="dramate-logo-id__access-desc">
    Dramate is an educational resource providing drama study materials for
    GCSE, A level, and university students.
  </desc>
  <g id="dramate-logo-id__bounding-box" clip-path="url(#clip0_1584_58)">
    <g id="dramate-logo-id__wordmark" class="dramate-logo__text dramate-logo__text--wordmark">
      <path
        d="M201.767 153.028V149.188C204.583 149.06 206.695 148.74 208.103 148.228C209.575 147.652 210.567 146.596 211.079 145.06C211.591 143.524 211.847 141.252 211.847 138.244V93.8918C211.847 90.8838 211.623 88.6438 211.175 87.1718C210.791 85.6358 209.991 84.5798 208.775 84.0038C207.559 83.4278 205.735 83.0758 203.303 82.9478V79.1078H239.783C245.927 79.1078 251.591 80.0678 256.775 81.9878C261.959 83.8438 266.439 86.4998 270.215 89.9558C273.991 93.3478 276.935 97.3798 279.047 102.052C281.159 106.724 282.215 111.812 282.215 117.316C282.215 122.564 281.223 127.364 279.239 131.716C277.319 136.068 274.535 139.844 270.887 143.044C267.303 146.244 263.047 148.708 258.119 150.436C253.191 152.164 247.751 153.028 241.799 153.028H201.767ZM240.071 147.172C248.455 147.172 254.887 144.644 259.367 139.588C263.911 134.468 266.183 127.108 266.183 117.508C266.183 110.66 265.095 104.836 262.919 100.036C260.807 95.1718 257.767 91.4598 253.799 88.8998C249.831 86.2758 245.095 84.9638 239.591 84.9638H227.591C226.503 84.9638 225.959 85.5078 225.959 86.5958V136.228C225.959 143.524 230.663 147.172 240.071 147.172ZM310.433 133.54V138.148C310.433 141.412 310.657 143.844 311.105 145.444C311.553 146.98 312.513 147.972 313.985 148.42C315.457 148.868 317.665 149.124 320.609 149.188V153.028H288.545V149.188C291.169 148.996 293.057 148.644 294.209 148.132C295.425 147.62 296.193 146.596 296.513 145.06C296.897 143.524 297.089 141.156 297.089 137.956V126.244C297.089 122.276 296.961 119.108 296.705 116.74C296.513 114.308 296.097 112.484 295.457 111.268C294.881 109.988 293.985 109.156 292.769 108.772C291.617 108.324 290.081 108.1 288.161 108.1V104.74L307.361 101.188L308.897 112.228H309.281C311.009 108.836 313.281 106.148 316.097 104.164C318.913 102.18 321.889 101.188 325.025 101.188C327.457 101.188 329.441 101.796 330.977 103.012C332.513 104.228 333.281 105.764 333.281 107.62C333.281 109.668 332.673 111.396 331.457 112.804C330.305 114.212 328.705 114.916 326.657 114.916C325.377 114.916 324.257 114.596 323.297 113.956C322.401 113.316 321.569 112.676 320.801 112.036C320.033 111.396 319.201 111.076 318.305 111.076C317.089 111.076 315.937 111.876 314.849 113.476C313.761 115.076 312.865 117.22 312.161 119.908C311.649 121.828 311.233 124.004 310.913 126.436C310.593 128.804 310.433 131.172 310.433 133.54ZM376.006 153.988C373.062 153.988 370.79 153.124 369.19 151.396C367.654 149.604 366.886 147.044 366.886 143.716H366.406C364.678 146.916 362.31 149.412 359.302 151.204C356.294 152.996 352.998 153.892 349.414 153.892C346.47 153.892 343.974 153.348 341.926 152.26C339.878 151.108 338.342 149.636 337.318 147.844C336.294 146.052 335.782 144.132 335.782 142.084C335.782 138.948 337.062 136.164 339.622 133.732C342.246 131.236 346.406 128.772 352.102 126.34L365.542 120.58V116.548C365.542 112.9 364.87 110.212 363.526 108.484C362.246 106.756 360.262 105.892 357.574 105.892C355.718 105.892 354.31 106.372 353.35 107.332C352.39 108.228 351.462 109.892 350.566 112.324C350.054 113.796 349.254 115.012 348.166 115.972C347.078 116.932 345.638 117.412 343.846 117.412C342.054 117.412 340.646 116.9 339.622 115.876C338.662 114.788 338.182 113.348 338.182 111.556C338.182 108.292 339.878 105.764 343.27 103.972C346.662 102.116 351.654 101.188 358.246 101.188C365.542 101.188 370.726 102.468 373.798 105.028C376.87 107.588 378.406 111.94 378.406 118.084V139.108C378.406 141.924 378.662 144.004 379.174 145.348C379.75 146.628 380.646 147.268 381.862 147.268C382.374 147.268 382.886 147.172 383.398 146.98C383.974 146.788 384.518 146.468 385.03 146.02L386.47 148.804C385.638 150.34 384.262 151.588 382.342 152.548C380.422 153.508 378.31 153.988 376.006 153.988ZM355.366 144.964C357.158 144.964 358.822 144.516 360.358 143.62C361.894 142.724 363.142 141.508 364.102 139.972C365.062 138.372 365.542 136.644 365.542 134.788V125.668C361.51 127.588 358.31 129.284 355.942 130.756C353.574 132.228 351.878 133.636 350.854 134.98C349.83 136.324 349.318 137.764 349.318 139.3C349.318 141.028 349.862 142.404 350.95 143.428C352.038 144.452 353.51 144.964 355.366 144.964ZM407.899 125.476V137.668C407.899 141.188 408.027 143.78 408.283 145.444C408.603 147.108 409.307 148.196 410.395 148.708C411.547 149.156 413.339 149.476 415.771 149.668V153.028H390.235V149.668C392.731 149.476 394.555 149.156 395.707 148.708C396.859 148.196 397.595 147.172 397.915 145.636C398.299 144.036 398.491 141.636 398.491 138.436V126.148C398.491 122.5 398.427 119.46 398.299 117.028C398.235 114.532 398.075 112.868 397.819 112.036C397.499 110.372 396.859 109.316 395.899 108.868C394.939 108.42 392.987 108.196 390.043 108.196V104.836L405.691 101.188L406.939 110.788H407.419C410.299 107.524 413.307 105.124 416.443 103.588C419.643 101.988 423.163 101.188 427.003 101.188C431.035 101.188 434.427 102.02 437.179 103.684C439.995 105.348 441.915 107.684 442.939 110.692H443.323C445.691 107.684 448.571 105.348 451.963 103.684C455.419 102.02 459.035 101.188 462.811 101.188C465.819 101.188 468.539 101.7 470.971 102.724C473.467 103.684 475.355 105.028 476.635 106.756C477.787 108.228 478.587 110.18 479.035 112.612C479.547 114.98 479.803 118.244 479.803 122.404V137.668C479.803 141.188 479.963 143.78 480.283 145.444C480.603 147.044 481.307 148.1 482.395 148.612C483.547 149.124 485.339 149.476 487.771 149.668V153.028H462.235V149.668C464.667 149.54 466.459 149.22 467.611 148.708C468.763 148.196 469.499 147.172 469.819 145.636C470.203 144.036 470.395 141.636 470.395 138.436V126.34C470.395 118.98 469.563 113.828 467.899 110.884C466.235 107.94 463.323 106.468 459.163 106.468C456.411 106.468 453.787 107.268 451.291 108.868C448.795 110.404 446.843 112.484 445.435 115.108C444.987 115.94 444.635 116.772 444.379 117.604C444.187 118.436 444.027 119.46 443.899 120.676C443.835 121.828 443.803 123.428 443.803 125.476V137.668C443.803 141.188 443.963 143.78 444.283 145.444C444.603 147.044 445.307 148.1 446.395 148.612C447.547 149.124 449.371 149.476 451.867 149.668V153.028H426.331V149.668C428.763 149.476 430.555 149.156 431.707 148.708C432.859 148.196 433.595 147.172 433.915 145.636C434.235 144.036 434.395 141.636 434.395 138.436V126.34C434.395 121.348 434.043 117.412 433.339 114.532C432.635 111.652 431.483 109.604 429.883 108.388C428.283 107.108 426.107 106.468 423.355 106.468C420.539 106.468 417.851 107.268 415.291 108.868C412.731 110.404 410.811 112.484 409.531 115.108C409.083 115.94 408.731 116.772 408.475 117.604C408.283 118.436 408.123 119.46 407.995 120.676C407.931 121.828 407.899 123.428 407.899 125.476ZM531.378 153.988C528.626 153.988 526.546 153.092 525.138 151.3C523.73 149.508 523.026 146.98 523.026 143.716H522.546C520.818 146.852 518.482 149.348 515.538 151.204C512.594 152.996 509.33 153.892 505.746 153.892C503.122 153.892 500.85 153.412 498.93 152.452C497.01 151.492 495.506 150.18 494.418 148.516C493.394 146.788 492.882 144.772 492.882 142.468C492.882 139.46 494.002 136.708 496.242 134.212C498.482 131.652 502.546 129.092 508.434 126.532L522.258 120.484V116.548C522.258 112.516 521.426 109.572 519.762 107.716C518.162 105.796 515.602 104.836 512.082 104.836C510.034 104.836 508.53 105.252 507.57 106.084C506.674 106.916 505.81 108.58 504.978 111.076C504.274 112.868 503.57 114.084 502.866 114.724C502.226 115.364 501.266 115.684 499.986 115.684C498.45 115.684 497.266 115.268 496.434 114.436C495.602 113.604 495.186 112.42 495.186 110.884C495.186 107.812 496.818 105.444 500.082 103.78C503.346 102.052 507.986 101.188 514.002 101.188C520.466 101.188 525.01 102.308 527.634 104.548C530.322 106.788 531.666 110.66 531.666 116.164V137.668C531.666 141.636 532.05 144.452 532.818 146.116C533.586 147.78 534.802 148.612 536.466 148.612C537.106 148.612 537.842 148.484 538.674 148.228C539.57 147.908 540.242 147.332 540.69 146.5L542.034 148.804C541.266 150.276 539.858 151.524 537.81 152.548C535.762 153.508 533.618 153.988 531.378 153.988ZM510.066 148.132C512.37 148.132 514.45 147.428 516.306 146.02C518.162 144.548 519.602 142.596 520.626 140.164C521.714 137.732 522.258 135.076 522.258 132.196V124.612C517.394 126.468 513.522 128.292 510.642 130.084C507.762 131.876 505.682 133.668 504.402 135.46C503.186 137.188 502.578 138.98 502.578 140.836C502.578 143.012 503.282 144.772 504.69 146.116C506.098 147.46 507.89 148.132 510.066 148.132ZM550.551 108.196H544.791V104.644C548.183 102.596 550.839 100.612 552.759 98.6918C554.679 96.7078 556.151 94.3398 557.175 91.5878H559.959V103.684H572.823V108.196H559.959V137.38C559.959 141.86 560.407 144.964 561.303 146.692C562.263 148.42 564.023 149.284 566.583 149.284C568.183 149.284 569.559 148.964 570.711 148.324C571.863 147.62 572.951 146.468 573.975 144.868L576.375 146.692C574.519 151.556 570.231 153.988 563.511 153.988C559.287 153.988 556.055 152.964 553.815 150.916C551.639 148.868 550.551 145.988 550.551 142.276V108.196ZM623.408 141.412L626.384 144.1C620.944 150.692 614.192 153.988 606.128 153.988C601.136 153.988 596.752 152.9 592.976 150.724C589.2 148.548 586.256 145.54 584.144 141.7C582.032 137.796 580.976 133.284 580.976 128.164C580.976 122.916 582.096 118.276 584.336 114.244C586.576 110.148 589.648 106.948 593.552 104.644C597.52 102.34 602.096 101.188 607.28 101.188C613.424 101.188 618.192 102.884 621.584 106.276C625.04 109.604 626.768 114.404 626.768 120.676C626.768 121.508 626.576 122.052 626.192 122.308C625.872 122.5 625.072 122.596 623.792 122.596H592.208C592.08 123.108 591.984 123.748 591.92 124.516C591.856 125.22 591.824 126.02 591.824 126.916C591.824 131.332 592.528 135.204 593.936 138.532C595.344 141.86 597.328 144.452 599.888 146.308C602.448 148.1 605.424 148.996 608.816 148.996C611.44 148.996 613.936 148.388 616.304 147.172C618.672 145.956 621.04 144.036 623.408 141.412ZM592.88 118.18H610.544C613.168 118.18 614.768 118.02 615.344 117.7C615.984 117.38 616.304 116.644 616.304 115.492C616.304 112.548 615.344 110.212 613.424 108.484C611.504 106.692 608.944 105.796 605.744 105.796C602.352 105.796 599.568 106.852 597.392 108.964C595.216 111.012 593.712 114.084 592.88 118.18Z"
        fill="#F7ECD8" />
    </g>
    <path id="dramate-logo-id__tagline" class="dramate-logo__text dramate-logo__text--tagline"
      d="M369.845 181.606L368.585 180.022C368.105 179.302 367.721 178.63 367.433 178.006C367.145 177.382 366.941 176.614 366.821 175.702C366.653 175.126 366.545 174.586 366.497 174.082C366.449 173.578 366.425 173.002 366.425 172.354C366.449 171.682 366.473 170.854 366.497 169.87C366.521 168.958 366.617 168.298 366.785 167.89C366.977 167.482 367.121 167.182 367.217 166.99C367.457 166.702 367.673 166.666 367.865 166.882C368.081 167.098 368.249 167.47 368.369 167.998C368.513 168.502 368.573 169.102 368.549 169.798C368.621 172.366 368.801 174.406 369.089 175.918C369.401 177.43 369.821 178.354 370.349 178.69C370.637 178.762 370.889 178.75 371.105 178.654C371.345 178.534 371.681 178.246 372.113 177.79C372.569 177.31 373.241 176.59 374.129 175.63C374.777 174.934 375.437 174.19 376.109 173.398C376.805 172.606 377.453 171.85 378.053 171.13C378.677 170.41 379.229 169.798 379.709 169.294C380.213 168.766 380.609 168.418 380.897 168.25C380.993 168.106 381.089 167.998 381.185 167.926C381.305 167.854 381.413 167.818 381.509 167.818C381.605 167.794 381.653 167.782 381.653 167.782C381.845 167.83 381.953 167.986 381.977 168.25C382.001 168.49 382.097 168.73 382.265 168.97C382.313 169.066 382.349 169.174 382.373 169.294C382.397 169.39 382.397 169.498 382.373 169.618C382.373 169.69 382.325 169.786 382.229 169.906C382.133 170.002 382.025 170.11 381.905 170.23C381.809 170.326 381.701 170.434 381.581 170.554C381.269 170.818 380.777 171.286 380.105 171.958C379.457 172.606 378.785 173.314 378.089 174.082C377.393 174.826 376.805 175.498 376.325 176.098C375.269 177.322 374.321 178.378 373.481 179.266C372.665 180.154 372.161 180.682 371.969 180.85C371.945 180.898 371.777 181.066 371.465 181.354C371.153 181.642 370.937 181.882 370.817 182.074L369.845 181.606ZM367.289 193.666C367.193 193.642 367.049 193.558 366.857 193.414C366.665 193.294 366.449 193.15 366.209 192.982C366.041 192.79 365.933 192.61 365.885 192.442C365.861 192.274 365.897 192.034 365.993 191.722C366.089 191.41 366.221 190.93 366.389 190.282C366.413 189.73 366.521 189.058 366.713 188.266C366.929 187.474 367.181 186.814 367.469 186.286C367.469 186.022 367.529 185.662 367.649 185.206C367.769 184.75 367.913 184.282 368.081 183.802C368.273 183.298 368.441 182.866 368.585 182.506L369.233 180.634L370.673 179.41L371.681 180.526C371.585 180.67 371.501 180.838 371.429 181.03C371.357 181.222 371.261 181.546 371.141 182.002C371.021 182.458 370.841 183.166 370.601 184.126C370.409 184.774 370.193 185.47 369.953 186.214C369.737 186.958 369.533 187.654 369.341 188.302C369.149 188.95 368.981 189.478 368.837 189.886C368.549 190.966 368.333 191.794 368.189 192.37C368.045 192.946 367.913 193.318 367.793 193.486C367.697 193.678 367.529 193.738 367.289 193.666ZM379.685 190.678C379.373 190.678 379.121 190.618 378.929 190.498C378.761 190.378 378.545 190.21 378.281 189.994C377.825 189.514 377.501 189.058 377.309 188.626C377.117 188.17 377.057 187.738 377.129 187.33C377.201 187.138 377.225 186.958 377.201 186.79C377.201 186.598 377.201 186.502 377.201 186.502C377.081 186.382 377.045 186.31 377.093 186.286C377.141 186.238 377.189 186.166 377.237 186.07C377.381 186.07 377.429 185.938 377.381 185.674C377.333 185.482 377.429 185.062 377.669 184.414C377.909 183.766 378.209 183.154 378.569 182.578C378.713 182.338 378.929 182.026 379.217 181.642C379.505 181.234 379.817 180.838 380.153 180.454C380.513 180.046 380.837 179.722 381.125 179.482C381.725 178.978 382.253 178.606 382.709 178.366C383.165 178.126 383.657 177.946 384.185 177.826C384.713 177.706 385.073 177.646 385.265 177.646C385.481 177.646 385.769 177.838 386.129 178.222C386.681 178.462 387.077 178.75 387.317 179.086C387.581 179.422 387.749 179.914 387.821 180.562C387.893 181.282 387.833 182.11 387.641 183.046C387.473 183.958 386.909 185.098 385.949 186.466C385.349 187.33 384.797 187.978 384.293 188.41C383.789 188.818 383.189 189.226 382.493 189.634C381.989 189.97 381.533 190.222 381.125 190.39C380.717 190.534 380.237 190.63 379.685 190.678ZM383.141 186.862C383.717 186.214 384.173 185.602 384.509 185.026C384.869 184.45 385.205 183.718 385.517 182.83C385.613 182.566 385.673 182.242 385.697 181.858C385.721 181.45 385.709 181.078 385.661 180.742C385.637 180.382 385.553 180.178 385.409 180.13C385.121 179.962 384.773 179.914 384.365 179.986C383.957 180.034 383.513 180.262 383.033 180.67C382.289 181.294 381.641 182.074 381.089 183.01C380.537 183.922 379.997 184.966 379.469 186.142C379.109 187.006 379.025 187.702 379.217 188.23C379.433 188.734 379.877 188.914 380.549 188.77C381.245 188.602 382.109 187.966 383.141 186.862ZM397.993 191.146C397.825 191.242 397.597 191.206 397.309 191.038C397.045 190.87 396.781 190.618 396.517 190.282C396.349 189.994 396.229 189.682 396.157 189.346C396.109 189.01 396.085 188.542 396.085 187.942C396.109 187.462 396.085 187.15 396.013 187.006C395.965 186.862 395.833 186.886 395.617 187.078C395.401 187.246 395.029 187.594 394.501 188.122C393.901 188.722 393.325 189.19 392.773 189.526C392.245 189.862 391.813 190.018 391.477 189.994C391.309 189.994 391.117 189.91 390.901 189.742C390.709 189.55 390.529 189.322 390.361 189.058C390.193 188.77 390.049 188.482 389.929 188.194C389.785 187.666 389.761 186.994 389.857 186.178C389.977 185.338 390.169 184.462 390.433 183.55C390.697 182.638 390.997 181.774 391.333 180.958C391.693 180.142 392.053 179.482 392.413 178.978C392.797 178.474 393.133 178.222 393.421 178.222C393.613 178.222 393.781 178.318 393.925 178.51C394.093 178.702 394.261 179.002 394.429 179.41C394.525 179.578 394.561 179.722 394.537 179.842C394.537 179.962 394.441 180.106 394.249 180.274C394.033 180.562 393.781 180.994 393.493 181.57C393.229 182.146 392.965 182.77 392.701 183.442C392.461 184.114 392.245 184.762 392.053 185.386C391.861 186.01 391.729 186.526 391.657 186.934C391.585 187.318 391.597 187.51 391.693 187.51C392.029 187.51 392.425 187.378 392.881 187.114C393.361 186.826 393.817 186.478 394.249 186.07C394.753 185.566 395.197 185.014 395.581 184.414C395.989 183.814 396.397 183.178 396.805 182.506C397.117 182.026 397.441 181.498 397.777 180.922C398.137 180.346 398.365 179.938 398.461 179.698C398.797 179.074 399.049 178.654 399.217 178.438C399.385 178.198 399.589 178.042 399.829 177.97C399.949 177.97 400.057 177.97 400.153 177.97C400.273 177.97 400.333 177.97 400.333 177.97C400.477 177.994 400.645 178.102 400.837 178.294C401.029 178.39 401.137 178.486 401.161 178.582C401.185 178.654 401.197 178.75 401.197 178.87C401.101 179.11 400.945 179.47 400.729 179.95C400.537 180.406 400.393 180.742 400.297 180.958C399.841 181.99 399.385 183.01 398.929 184.018C398.497 185.002 398.185 186.01 397.993 187.042C397.945 187.378 397.933 187.774 397.957 188.23C398.005 188.662 398.077 188.974 398.173 189.166C398.245 189.31 398.329 189.478 398.425 189.67C398.545 189.838 398.677 189.982 398.821 190.102C399.037 190.246 399.073 190.402 398.929 190.57C398.809 190.738 398.641 190.882 398.425 191.002C398.209 191.098 398.065 191.146 397.993 191.146ZM403.181 189.958C402.965 189.79 402.809 189.622 402.713 189.454C402.641 189.286 402.641 188.962 402.713 188.482C402.785 187.81 402.881 187.222 403.001 186.718C403.121 186.19 403.265 185.59 403.433 184.918C403.481 184.63 403.613 184.138 403.829 183.442C404.069 182.746 404.357 181.99 404.693 181.174C405.029 180.358 405.365 179.59 405.701 178.87C406.037 178.126 406.325 177.574 406.565 177.214C406.757 177.07 406.985 177.01 407.249 177.034C407.537 177.058 407.777 177.166 407.969 177.358C408.233 177.574 408.269 177.958 408.077 178.51C407.909 179.038 407.549 179.878 406.997 181.03C406.709 181.678 406.493 182.17 406.349 182.506C406.205 182.818 406.145 183.01 406.169 183.082C406.193 183.13 406.301 183.094 406.493 182.974C406.637 182.71 406.901 182.41 407.285 182.074C407.669 181.714 408.077 181.366 408.509 181.03C408.941 180.694 409.349 180.394 409.733 180.13C410.117 179.866 410.381 179.698 410.525 179.626C410.717 179.506 410.933 179.41 411.173 179.338C411.437 179.242 411.617 179.17 411.713 179.122C412.265 178.858 412.829 178.762 413.405 178.834C413.981 178.906 414.341 179.122 414.485 179.482C414.509 179.674 414.581 179.818 414.701 179.914C414.845 180.01 414.917 180.058 414.917 180.058C415.013 180.058 415.061 180.094 415.061 180.166C415.085 180.238 415.097 180.274 415.097 180.274C415.097 180.442 414.965 180.55 414.701 180.598C414.461 180.622 414.149 180.646 413.765 180.67C413.453 180.694 413.177 180.754 412.937 180.85C412.697 180.946 412.409 181.066 412.073 181.21C411.161 181.738 410.285 182.254 409.445 182.758C408.629 183.262 407.837 183.934 407.069 184.774C406.901 184.966 406.733 185.194 406.565 185.458C406.397 185.722 406.217 186.01 406.025 186.322C405.905 186.442 405.785 186.706 405.665 187.114C405.545 187.522 405.437 187.918 405.341 188.302C405.269 188.662 405.233 188.878 405.233 188.95C405.233 188.95 405.197 189.07 405.125 189.31C405.053 189.526 404.933 189.742 404.765 189.958C404.477 190.342 404.237 190.534 404.045 190.534C403.853 190.534 403.565 190.342 403.181 189.958ZM432.684 190.858C432.588 190.858 432.444 190.846 432.252 190.822C432.084 190.774 431.94 190.666 431.82 190.498C431.46 190.066 431.232 189.706 431.136 189.418C431.04 189.13 431.028 188.71 431.1 188.158C431.148 187.798 431.172 187.486 431.172 187.222C431.196 186.934 431.22 186.694 431.244 186.502C431.148 186.406 430.968 186.478 430.704 186.718C430.464 186.934 430.128 187.21 429.696 187.546C428.88 188.482 428.148 189.202 427.5 189.706C426.876 190.186 426.312 190.51 425.808 190.678C425.304 190.822 424.824 190.87 424.368 190.822C423.96 190.774 423.636 190.606 423.396 190.318C423.156 190.006 423 189.61 422.928 189.13C422.88 188.65 422.88 188.134 422.928 187.582C423.024 186.79 423.192 186.034 423.432 185.314C423.696 184.594 424.116 183.79 424.692 182.902C424.956 182.422 425.304 181.954 425.736 181.498C426.192 181.018 426.684 180.598 427.212 180.238C427.764 179.854 428.292 179.578 428.796 179.41C429.348 179.194 429.912 179.074 430.488 179.05C431.064 179.002 431.58 179.05 432.036 179.194C432.324 179.338 432.552 179.41 432.72 179.41C432.912 179.41 433.056 179.29 433.152 179.05C433.272 178.858 433.392 178.57 433.512 178.186C433.632 177.778 433.776 177.43 433.944 177.142L434.736 174.802C435 174.154 435.288 173.47 435.6 172.75C435.912 172.03 436.284 171.154 436.716 170.122C437.124 169.354 437.46 168.91 437.724 168.79C437.988 168.646 438.288 168.742 438.624 169.078C438.888 169.39 438.984 169.75 438.912 170.158C438.84 170.542 438.624 171.166 438.264 172.03C438.096 172.294 437.952 172.546 437.832 172.786C437.712 173.002 437.544 173.35 437.328 173.83C437.016 174.574 436.728 175.246 436.464 175.846C436.2 176.422 435.924 177.082 435.636 177.826C435.54 178.21 435.408 178.654 435.24 179.158C435.096 179.662 434.976 180.118 434.88 180.526C434.808 180.91 434.724 181.27 434.628 181.606C434.556 181.918 434.472 182.074 434.376 182.074C434.184 182.29 434.004 182.674 433.836 183.226C433.668 183.754 433.524 184.306 433.404 184.882C433.308 185.458 433.224 185.938 433.152 186.322C433.104 186.61 433.068 186.982 433.044 187.438C433.02 187.894 433.008 188.338 433.008 188.77C433.008 189.178 433.008 189.466 433.008 189.634C433.008 190.162 432.996 190.498 432.972 190.642C432.948 190.786 432.852 190.858 432.684 190.858ZM425.016 188.59C425.52 188.59 426.048 188.374 426.6 187.942C427.176 187.51 427.752 187.03 428.328 186.502C428.688 186.166 429.072 185.722 429.48 185.17C429.912 184.618 430.32 184.066 430.704 183.514C431.112 182.962 431.436 182.482 431.676 182.074C431.916 181.642 432.036 181.378 432.036 181.282C432.036 181.162 431.928 181.078 431.712 181.03C431.496 180.982 431.244 180.958 430.956 180.958C430.692 180.934 430.476 180.946 430.308 180.994C429.78 181.114 429.252 181.354 428.724 181.714C428.22 182.074 427.668 182.614 427.068 183.334C426.444 184.102 425.928 184.894 425.52 185.71C425.136 186.526 424.896 187.21 424.8 187.762C424.704 188.314 424.776 188.59 425.016 188.59ZM439.041 190.39C438.921 190.63 438.741 190.702 438.501 190.606C438.285 190.51 438.105 190.414 437.961 190.318C437.793 190.318 437.649 190.27 437.529 190.174C437.409 190.078 437.325 189.934 437.277 189.742C437.229 189.598 437.217 189.43 437.241 189.238C437.265 189.022 437.313 188.782 437.385 188.518C437.481 188.23 437.577 187.918 437.673 187.582C437.865 186.79 437.997 186.214 438.069 185.854C438.141 185.494 438.213 185.182 438.285 184.918C438.357 184.654 438.453 184.27 438.573 183.766C438.765 183.286 438.921 182.818 439.041 182.362C439.161 181.906 439.341 181.45 439.581 180.994C439.749 180.37 439.953 179.782 440.193 179.23C440.457 178.654 440.709 178.174 440.949 177.79C440.997 177.718 441.081 177.622 441.201 177.502C441.345 177.382 441.465 177.322 441.561 177.322C441.753 177.13 441.921 177.058 442.065 177.106C442.233 177.13 442.437 177.238 442.677 177.43C442.965 177.742 443.073 178.102 443.001 178.51C442.953 178.918 442.665 179.518 442.137 180.31C441.849 181.054 441.585 181.702 441.345 182.254C441.105 182.782 440.937 183.286 440.841 183.766C441.105 183.382 441.393 183.034 441.705 182.722C442.041 182.386 442.317 182.11 442.533 181.894C443.061 181.366 443.493 180.982 443.829 180.742C444.189 180.502 444.609 180.226 445.089 179.914C445.377 179.722 445.653 179.554 445.917 179.41C446.181 179.242 446.469 179.122 446.781 179.05C447.117 178.978 447.477 178.978 447.861 179.05C448.101 179.026 448.293 179.098 448.437 179.266C448.605 179.434 448.737 179.662 448.833 179.95C448.929 180.238 448.989 180.574 449.013 180.958C448.461 180.838 447.969 180.862 447.537 181.03C447.105 181.174 446.733 181.354 446.421 181.57C446.133 181.786 445.905 181.954 445.737 182.074C445.377 182.314 444.921 182.638 444.369 183.046C443.817 183.43 443.265 183.898 442.713 184.45C442.281 184.93 441.909 185.338 441.597 185.674C441.309 186.01 441.069 186.31 440.877 186.574C440.709 186.838 440.577 187.114 440.481 187.402C440.241 187.954 439.989 188.554 439.725 189.202C439.461 189.85 439.233 190.246 439.041 190.39ZM452.086 190.03C451.798 190.078 451.486 190.03 451.15 189.886C450.814 189.742 450.514 189.538 450.25 189.274C450.01 189.01 449.854 188.734 449.782 188.446C449.686 187.942 449.746 187.318 449.962 186.574C450.202 185.806 450.538 185.002 450.97 184.162C451.426 183.298 451.93 182.47 452.482 181.678C453.058 180.886 453.646 180.202 454.246 179.626C454.87 179.026 455.446 178.618 455.974 178.402C456.238 178.234 456.442 178.126 456.586 178.078C456.754 178.006 456.922 177.994 457.09 178.042C457.282 178.09 457.558 178.21 457.918 178.402C458.254 178.498 458.506 178.606 458.674 178.726C458.842 178.846 459.058 179.086 459.322 179.446C459.514 179.806 459.658 180.166 459.754 180.526C459.85 180.886 459.934 181.294 460.006 181.75C460.198 182.35 460.27 182.746 460.222 182.938C460.174 183.106 460.102 183.238 460.006 183.334C459.814 183.574 459.766 183.694 459.862 183.694C459.862 183.694 459.85 183.742 459.826 183.838C459.826 183.91 459.778 184.03 459.682 184.198C459.514 184.726 459.382 185.278 459.286 185.854C459.214 186.406 459.226 186.862 459.322 187.222C459.514 187.75 459.862 188.062 460.366 188.158C460.87 188.254 461.386 188.038 461.914 187.51C462.178 187.318 462.43 187.15 462.67 187.006C462.91 186.838 463.03 186.85 463.03 187.042C463.03 187.042 463.066 187.078 463.138 187.15C463.21 187.198 463.294 187.222 463.39 187.222C463.51 187.222 463.582 187.27 463.606 187.366C463.654 187.462 463.654 187.594 463.606 187.762C463.582 187.906 463.51 188.074 463.39 188.266C463.03 188.626 462.85 188.866 462.85 188.986C462.85 188.986 462.802 189.034 462.706 189.13C462.634 189.202 462.502 189.322 462.31 189.49C461.878 189.754 461.326 189.886 460.654 189.886C460.006 189.886 459.502 189.754 459.142 189.49C458.782 189.226 458.446 188.866 458.134 188.41C457.846 187.954 457.654 187.558 457.558 187.222L457.378 186.862L456.334 187.546C456.07 187.81 455.782 188.062 455.47 188.302C455.182 188.542 454.99 188.71 454.894 188.806C454.822 188.902 454.738 188.986 454.642 189.058C454.57 189.13 454.486 189.166 454.39 189.166C454.294 189.166 454.21 189.166 454.138 189.166C454.066 189.166 454.03 189.166 454.03 189.166C454.03 189.262 453.91 189.382 453.67 189.526C453.454 189.67 453.19 189.79 452.878 189.886C452.59 189.982 452.326 190.03 452.086 190.03ZM451.726 188.086C451.87 188.086 452.122 187.978 452.482 187.762C452.866 187.522 453.286 187.246 453.742 186.934C454.222 186.622 454.642 186.31 455.002 185.998C455.386 185.686 455.65 185.446 455.794 185.278C455.89 185.182 456.046 185.026 456.262 184.81C456.478 184.57 456.67 184.366 456.838 184.198C457.39 183.574 457.774 182.89 457.99 182.146C458.206 181.378 458.182 180.778 457.918 180.346C457.822 180.082 457.702 179.938 457.558 179.914C457.414 179.89 457.114 179.974 456.658 180.166C456.37 180.334 456.01 180.658 455.578 181.138C455.17 181.594 454.726 182.134 454.246 182.758C453.79 183.358 453.358 183.982 452.95 184.63C452.542 185.278 452.206 185.878 451.942 186.43C451.678 186.982 451.546 187.414 451.546 187.726C451.546 187.822 451.57 187.906 451.618 187.978C451.69 188.05 451.726 188.086 451.726 188.086ZM480.496 189.706C480.376 189.658 480.196 189.538 479.956 189.346C479.716 189.154 479.512 188.83 479.344 188.374C479.176 187.894 479.092 187.234 479.092 186.394C479.116 185.674 479.128 185.11 479.128 184.702C479.152 184.294 479.068 184.09 478.876 184.09C478.684 184.09 478.312 184.282 477.76 184.666C477.232 185.026 476.62 185.518 475.924 186.142C475.228 186.766 474.52 187.462 473.8 188.23C473.56 188.494 473.32 188.746 473.08 188.986C472.864 189.202 472.648 189.346 472.432 189.418C472.216 189.466 471.964 189.382 471.676 189.166L471.28 188.842C471.16 188.722 471.088 188.602 471.064 188.482C471.04 188.338 471.052 188.182 471.1 188.014L471.928 185.638C472.312 184.774 472.576 184.15 472.72 183.766C472.864 183.358 472.936 183.106 472.936 183.01C472.936 182.89 472.9 182.842 472.828 182.866C472.636 182.89 472.348 183.01 471.964 183.226C471.58 183.418 471.328 183.61 471.208 183.802C471.112 183.802 470.968 183.91 470.776 184.126C470.584 184.342 470.344 184.546 470.056 184.738C469.888 185.026 469.552 185.398 469.048 185.854C468.568 186.31 468.088 186.778 467.608 187.258C467.296 187.522 466.984 187.846 466.672 188.23C466.384 188.614 466.132 188.95 465.916 189.238C465.724 189.526 465.592 189.67 465.52 189.67C465.208 189.67 464.92 189.586 464.656 189.418C464.416 189.25 464.236 188.974 464.116 188.59C463.924 188.182 463.924 187.618 464.116 186.898C464.308 186.154 464.524 185.194 464.764 184.018C464.86 183.658 464.92 183.394 464.944 183.226C464.968 183.058 465.004 182.89 465.052 182.722C465.124 182.53 465.232 182.242 465.376 181.858C465.544 181.474 465.796 180.898 466.132 180.13C466.3 179.674 466.396 179.338 466.42 179.122C466.468 178.882 466.492 178.714 466.492 178.618C466.492 178.378 466.552 178.174 466.672 178.006C466.816 177.838 466.984 177.718 467.176 177.646C467.368 177.574 467.548 177.562 467.716 177.61C467.98 177.658 468.208 177.79 468.4 178.006C468.616 178.222 468.736 178.522 468.76 178.906C468.784 179.194 468.76 179.458 468.688 179.698C468.616 179.914 468.544 180.118 468.472 180.31L468.076 181.282C467.956 181.546 467.8 181.93 467.608 182.434C467.416 182.938 467.248 183.406 467.104 183.838C466.96 184.246 466.888 184.486 466.888 184.558C466.912 184.63 466.996 184.618 467.14 184.522C467.284 184.402 467.464 184.246 467.68 184.054C467.92 183.838 468.16 183.634 468.4 183.442C468.904 182.962 469.468 182.506 470.092 182.074C470.74 181.618 471.352 181.234 471.928 180.922C472.504 180.61 472.948 180.406 473.26 180.31C473.668 180.31 473.944 180.382 474.088 180.526C474.256 180.67 474.532 180.934 474.916 181.318C475.084 181.486 475.18 181.702 475.204 181.966C475.228 182.23 475.216 182.482 475.168 182.722C475.144 182.818 475.072 183.058 474.952 183.442C474.832 183.802 474.712 184.15 474.592 184.486C474.496 184.822 474.448 184.99 474.448 184.99C474.448 184.99 474.58 184.87 474.844 184.63C475.132 184.39 475.444 184.138 475.78 183.874C476.116 183.586 476.368 183.37 476.536 183.226C477.472 182.506 478.288 182.05 478.984 181.858C479.68 181.666 480.244 181.918 480.676 182.614C480.964 182.878 481.108 183.166 481.108 183.478C481.132 183.79 481.144 184.33 481.144 185.098C481.168 185.41 481.192 185.782 481.216 186.214C481.24 186.646 481.264 187.042 481.288 187.402C481.336 187.738 481.384 187.942 481.432 188.014C481.504 188.11 481.636 188.194 481.828 188.266C482.044 188.314 482.32 188.362 482.656 188.41C483.016 188.458 483.232 188.614 483.304 188.878C483.376 189.142 483.22 189.394 482.836 189.634C482.476 189.85 482.08 189.946 481.648 189.922C481.216 189.898 480.832 189.826 480.496 189.706ZM484.296 189.922C484.2 189.73 484.08 189.586 483.936 189.49C483.792 189.37 483.72 189.262 483.72 189.166C483.72 189.07 483.708 188.974 483.684 188.878C483.684 188.758 483.636 188.65 483.54 188.554C483.42 188.41 483.432 188.086 483.576 187.582C483.72 187.054 483.96 186.418 484.296 185.674C484.632 184.906 485.028 184.102 485.484 183.262C485.676 183.07 485.868 182.818 486.06 182.506C486.252 182.194 486.396 181.99 486.492 181.894C486.492 181.798 486.528 181.714 486.6 181.642C486.672 181.546 486.756 181.498 486.852 181.498V181.282C486.852 181.162 486.96 180.958 487.176 180.67C487.416 180.382 487.704 180.07 488.04 179.734C488.376 179.374 488.724 179.038 489.084 178.726C489.444 178.39 489.744 178.15 489.984 178.006C490.488 177.67 491.004 177.466 491.532 177.394C492.084 177.322 492.552 177.442 492.936 177.754C493.008 177.826 493.128 177.946 493.296 178.114C493.464 178.282 493.656 178.474 493.872 178.69C494.112 178.882 494.352 179.086 494.592 179.302L495.924 180.49L495.276 182.29C494.964 183.25 494.88 184.09 495.024 184.81C495.192 185.53 495.432 186.154 495.744 186.682C495.864 186.946 496.104 187.198 496.464 187.438C496.848 187.678 497.208 187.822 497.544 187.87C497.736 187.894 497.916 187.966 498.084 188.086C498.252 188.206 498.336 188.398 498.336 188.662C498.336 188.902 498.288 189.094 498.192 189.238C498.096 189.382 497.928 189.478 497.688 189.526C496.896 189.622 496.152 189.43 495.456 188.95C494.784 188.47 494.16 187.678 493.584 186.574C493.488 186.43 493.356 186.166 493.188 185.782C493.044 185.374 492.96 185.11 492.936 184.99C492.84 185.11 492.66 185.338 492.396 185.674C492.132 185.986 491.928 186.214 491.784 186.358C490.08 188.086 488.604 189.25 487.356 189.85C486.132 190.426 485.112 190.45 484.296 189.922ZM485.592 187.906C485.592 188.074 485.844 188.074 486.348 187.906C486.876 187.714 487.44 187.378 488.04 186.898C488.856 186.202 489.672 185.434 490.488 184.594C491.328 183.754 492 182.974 492.504 182.254L493.296 180.958C493.056 180.406 492.792 180.034 492.504 179.842C492.24 179.626 492.012 179.518 491.82 179.518C491.508 179.518 491.04 179.806 490.416 180.382C489.816 180.958 489.168 181.726 488.472 182.686C487.776 183.646 487.116 184.702 486.492 185.854C486.252 186.334 486.036 186.802 485.844 187.258C485.676 187.69 485.592 187.906 485.592 187.906ZM511.178 190.894C510.578 190.942 510.002 190.906 509.45 190.786C508.922 190.666 508.466 190.462 508.082 190.174C507.722 189.862 507.47 189.49 507.326 189.058C507.158 188.722 507.074 188.494 507.074 188.374C507.074 188.23 507.158 188.11 507.326 188.014C507.518 188.014 507.686 188.074 507.83 188.194C507.998 188.29 508.214 188.398 508.478 188.518C508.838 188.83 509.27 188.998 509.774 189.022C510.302 189.046 510.782 188.962 511.214 188.77C511.646 188.578 511.886 188.338 511.934 188.05C511.934 187.954 511.898 187.786 511.826 187.546C511.754 187.306 511.67 187.054 511.574 186.79C510.926 185.878 510.446 184.978 510.134 184.09C509.846 183.178 509.702 182.434 509.702 181.858C509.702 181.426 509.834 180.97 510.098 180.49C510.362 179.986 510.722 179.566 511.178 179.23C511.61 178.774 512.09 178.366 512.618 178.006C513.146 177.646 513.674 177.334 514.202 177.07C514.754 176.806 515.246 176.614 515.678 176.494C515.942 176.494 516.29 176.53 516.722 176.602C517.154 176.674 517.454 176.758 517.622 176.854C517.886 176.95 518.138 177.214 518.378 177.646C518.618 178.054 518.738 178.462 518.738 178.87C518.738 179.038 518.69 179.254 518.594 179.518C518.498 179.782 518.342 180.094 518.126 180.454C518.03 180.718 517.922 180.97 517.802 181.21C517.682 181.426 517.622 181.582 517.622 181.678C517.502 181.942 517.334 182.074 517.118 182.074C516.926 182.05 516.722 181.942 516.506 181.75C516.314 181.534 516.158 181.282 516.038 180.994C515.942 180.634 515.906 180.346 515.93 180.13C515.954 179.89 516.05 179.638 516.218 179.374C516.482 179.11 516.614 178.93 516.614 178.834C516.614 178.738 516.482 178.69 516.218 178.69C516.05 178.69 515.738 178.798 515.282 179.014C514.85 179.206 514.382 179.47 513.878 179.806C513.398 180.118 512.978 180.454 512.618 180.814C512.162 181.246 511.886 181.558 511.79 181.75C511.718 181.942 511.682 182.242 511.682 182.65C511.682 182.986 511.754 183.406 511.898 183.91C512.066 184.414 512.234 184.75 512.402 184.918C512.402 184.918 512.486 185.086 512.654 185.422C512.822 185.734 513.026 186.07 513.266 186.43C513.962 187.966 514.142 189.07 513.806 189.742C513.47 190.414 512.594 190.798 511.178 190.894ZM522.907 193.018C522.115 192.898 521.575 192.598 521.287 192.118C521.023 191.662 520.963 190.954 521.107 189.994C521.251 189.538 521.335 189.13 521.359 188.77C521.407 188.386 521.515 188.146 521.683 188.05C521.683 188.05 521.695 188.014 521.719 187.942C521.767 187.87 521.755 187.798 521.683 187.726C521.683 187.414 521.791 186.982 522.007 186.43C522.055 186.286 522.115 186.118 522.187 185.926C522.283 185.71 522.331 185.602 522.331 185.602C522.211 185.41 522.211 185.254 522.331 185.134C522.451 185.014 522.571 184.906 522.691 184.81C522.835 184.69 522.847 184.558 522.727 184.414C522.679 184.318 522.739 184.102 522.907 183.766C523.075 183.406 523.267 183.034 523.483 182.65C523.699 182.266 523.843 181.966 523.915 181.75C523.915 181.702 523.975 181.534 524.095 181.246C524.215 180.958 524.359 180.622 524.527 180.238C524.695 179.854 524.851 179.506 524.995 179.194C525.163 178.882 525.271 178.678 525.319 178.582C525.559 178.462 525.463 178.378 525.031 178.33C524.599 178.282 524.143 178.27 523.663 178.294C522.919 178.27 522.319 178.234 521.863 178.186C521.431 178.138 521.071 178.03 520.783 177.862C520.495 177.526 520.387 177.286 520.459 177.142C520.555 176.974 520.843 176.878 521.323 176.854C521.635 176.83 521.875 176.818 522.043 176.818C522.235 176.818 522.475 176.806 522.763 176.782C523.075 176.734 523.555 176.674 524.203 176.602L526.039 176.458L526.147 175.846C526.339 175.534 526.495 175.258 526.615 175.018C526.759 174.754 526.879 174.49 526.975 174.226C527.071 173.962 527.143 173.686 527.191 173.398C527.191 173.398 527.299 173.206 527.515 172.822C527.731 172.414 527.863 171.994 527.911 171.562C528.199 171.082 528.451 170.65 528.667 170.266C528.883 169.858 529.015 169.606 529.063 169.51C529.327 169.294 529.507 169.186 529.603 169.186C529.723 169.186 529.963 169.306 530.323 169.546C530.539 169.666 530.731 169.81 530.899 169.978C531.067 170.146 531.175 170.326 531.223 170.518C531.271 170.686 531.199 170.854 531.007 171.022C530.959 171.118 530.887 171.298 530.791 171.562C530.695 171.802 530.623 172.006 530.575 172.174C530.431 172.342 530.251 172.618 530.035 173.002C529.843 173.362 529.711 173.734 529.639 174.118C529.447 174.526 529.267 174.898 529.099 175.234C528.931 175.546 528.799 175.702 528.703 175.702C528.751 175.942 528.895 176.062 529.135 176.062C529.375 176.038 529.771 176.014 530.323 175.99C530.779 175.942 531.091 175.894 531.259 175.846C531.451 175.774 531.667 175.798 531.907 175.918C532.027 176.086 532.123 176.278 532.195 176.494C532.267 176.71 532.279 176.914 532.231 177.106C532.207 177.274 532.111 177.394 531.943 177.466C531.823 177.466 531.571 177.538 531.187 177.682C530.827 177.802 530.371 177.874 529.819 177.898L527.911 178.078L527.299 179.302C527.131 179.614 526.987 179.902 526.867 180.166C526.747 180.406 526.663 180.55 526.615 180.598C526.615 180.742 526.531 180.958 526.363 181.246C526.219 181.534 526.063 181.846 525.895 182.182C525.751 182.59 525.583 182.962 525.391 183.298C525.223 183.634 525.139 183.802 525.139 183.802C525.043 183.802 524.995 183.874 524.995 184.018C525.115 184.306 525.079 184.522 524.887 184.666C524.767 184.738 524.659 184.846 524.563 184.99C524.491 185.11 524.455 185.17 524.455 185.17C524.551 185.266 524.563 185.386 524.491 185.53C524.443 185.674 524.371 185.83 524.275 185.998C524.275 186.19 524.215 186.466 524.095 186.826C523.999 187.186 523.891 187.522 523.771 187.834C523.795 188.266 523.819 188.542 523.843 188.662C523.867 188.782 523.927 188.83 524.023 188.806C524.143 188.83 524.251 188.83 524.347 188.806C524.443 188.782 524.539 188.77 524.635 188.77C524.971 188.626 524.791 189.466 524.095 191.29C523.711 191.89 523.447 192.322 523.303 192.586C523.159 192.874 523.027 193.018 522.907 193.018ZM539.685 191.146C539.517 191.242 539.289 191.206 539.001 191.038C538.737 190.87 538.473 190.618 538.209 190.282C538.041 189.994 537.921 189.682 537.849 189.346C537.801 189.01 537.777 188.542 537.777 187.942C537.801 187.462 537.777 187.15 537.705 187.006C537.657 186.862 537.525 186.886 537.309 187.078C537.093 187.246 536.721 187.594 536.193 188.122C535.593 188.722 535.017 189.19 534.465 189.526C533.937 189.862 533.505 190.018 533.169 189.994C533.001 189.994 532.809 189.91 532.593 189.742C532.401 189.55 532.221 189.322 532.053 189.058C531.885 188.77 531.741 188.482 531.621 188.194C531.477 187.666 531.453 186.994 531.549 186.178C531.669 185.338 531.861 184.462 532.125 183.55C532.389 182.638 532.689 181.774 533.025 180.958C533.385 180.142 533.745 179.482 534.105 178.978C534.489 178.474 534.825 178.222 535.113 178.222C535.305 178.222 535.473 178.318 535.617 178.51C535.785 178.702 535.953 179.002 536.121 179.41C536.217 179.578 536.253 179.722 536.229 179.842C536.229 179.962 536.133 180.106 535.941 180.274C535.725 180.562 535.473 180.994 535.185 181.57C534.921 182.146 534.657 182.77 534.393 183.442C534.153 184.114 533.937 184.762 533.745 185.386C533.553 186.01 533.421 186.526 533.349 186.934C533.277 187.318 533.289 187.51 533.385 187.51C533.721 187.51 534.117 187.378 534.573 187.114C535.053 186.826 535.509 186.478 535.941 186.07C536.445 185.566 536.889 185.014 537.273 184.414C537.681 183.814 538.089 183.178 538.497 182.506C538.809 182.026 539.133 181.498 539.469 180.922C539.829 180.346 540.057 179.938 540.153 179.698C540.489 179.074 540.741 178.654 540.909 178.438C541.077 178.198 541.281 178.042 541.521 177.97C541.641 177.97 541.749 177.97 541.845 177.97C541.965 177.97 542.025 177.97 542.025 177.97C542.169 177.994 542.337 178.102 542.529 178.294C542.721 178.39 542.829 178.486 542.853 178.582C542.877 178.654 542.889 178.75 542.889 178.87C542.793 179.11 542.637 179.47 542.421 179.95C542.229 180.406 542.085 180.742 541.989 180.958C541.533 181.99 541.077 183.01 540.621 184.018C540.189 185.002 539.877 186.01 539.685 187.042C539.637 187.378 539.625 187.774 539.649 188.23C539.697 188.662 539.769 188.974 539.865 189.166C539.937 189.31 540.021 189.478 540.117 189.67C540.237 189.838 540.369 189.982 540.513 190.102C540.729 190.246 540.765 190.402 540.621 190.57C540.501 190.738 540.333 190.882 540.117 191.002C539.901 191.098 539.757 191.146 539.685 191.146ZM553.621 191.902C553.309 191.974 553.045 191.926 552.829 191.758C552.637 191.614 552.493 191.398 552.397 191.11C552.205 190.558 552.061 189.958 551.965 189.31C551.893 188.638 551.881 188.05 551.929 187.546L552.001 186.79L550.597 187.906C549.781 188.626 548.989 189.142 548.221 189.454C547.477 189.766 546.817 189.922 546.241 189.922C545.977 189.874 545.713 189.778 545.449 189.634C545.185 189.49 544.945 189.31 544.729 189.094C544.537 188.878 544.381 188.65 544.261 188.41C544.117 188.074 544.069 187.618 544.117 187.042C544.189 186.466 544.333 185.842 544.549 185.17C544.789 184.474 545.077 183.802 545.413 183.154C545.773 182.482 546.181 181.894 546.637 181.39C547.429 180.19 548.281 179.458 549.193 179.194C550.105 178.93 551.005 179.062 551.893 179.59C552.517 179.854 552.901 179.974 553.045 179.95C553.213 179.926 553.357 179.65 553.477 179.122C553.573 178.738 553.669 178.354 553.765 177.97C553.861 177.562 554.017 177.022 554.233 176.35C554.833 174.526 555.349 173.098 555.781 172.066C556.237 171.034 556.645 170.134 557.005 169.366C557.269 168.814 557.485 168.478 557.653 168.358C557.845 168.214 558.037 168.154 558.229 168.178C558.493 168.178 558.733 168.274 558.949 168.466C559.165 168.658 559.333 168.922 559.453 169.258C559.549 169.474 559.585 169.666 559.561 169.834C559.561 169.978 559.489 170.182 559.345 170.446C559.033 171.022 558.661 171.79 558.229 172.75C557.821 173.686 557.401 174.718 556.969 175.846C556.561 176.974 556.177 178.09 555.817 179.194C555.457 180.298 555.157 181.27 554.917 182.11C554.773 182.638 554.641 183.31 554.521 184.126C554.425 184.942 554.341 185.782 554.269 186.646C554.197 187.486 554.149 188.242 554.125 188.914C554.125 189.562 554.149 189.982 554.197 190.174C554.341 190.654 554.401 191.014 554.377 191.254C554.377 191.494 554.317 191.65 554.197 191.722C554.077 191.818 553.885 191.878 553.621 191.902ZM547.537 187.906C547.873 187.834 548.197 187.702 548.509 187.51C548.845 187.318 549.193 187.09 549.553 186.826C550.273 186.274 550.897 185.77 551.425 185.314C551.953 184.858 552.301 184.162 552.469 183.226C552.517 182.77 552.469 182.41 552.325 182.146C552.205 181.858 552.001 181.594 551.713 181.354C551.425 181.162 551.029 181.09 550.525 181.138C550.045 181.162 549.541 181.414 549.013 181.894C548.437 182.422 547.873 183.13 547.321 184.018C546.793 184.906 546.397 185.998 546.133 187.294C546.085 187.534 546.157 187.726 546.349 187.87C546.541 188.014 546.937 188.026 547.537 187.906ZM557.386 199.894C556.858 199.99 556.498 200.002 556.306 199.93C556.114 199.858 555.85 199.738 555.514 199.57C555.25 199.378 555.046 199.234 554.902 199.138C554.758 199.042 554.686 198.946 554.686 198.85C554.686 198.778 554.71 198.694 554.758 198.598C554.806 198.526 554.89 198.454 555.01 198.382C555.154 198.334 555.346 198.31 555.586 198.31C555.754 198.406 556.03 198.454 556.414 198.454C556.822 198.454 557.074 198.406 557.17 198.31C557.17 198.31 557.278 198.238 557.494 198.094C557.734 197.974 558.046 197.878 558.43 197.806C559.174 197.446 559.834 196.99 560.41 196.438C560.986 195.886 561.538 195.166 562.066 194.278C562.282 193.942 562.51 193.546 562.75 193.09C562.99 192.658 563.158 192.226 563.254 191.794C563.446 191.314 563.662 190.666 563.902 189.85C564.166 189.034 564.394 188.23 564.586 187.438C564.778 186.622 564.886 186.01 564.91 185.602C565.054 184.258 565.282 183.022 565.594 181.894C565.93 180.742 566.218 179.458 566.458 178.042C566.602 177.706 566.71 177.514 566.782 177.466C566.854 177.394 567.01 177.358 567.25 177.358C567.514 177.358 567.706 177.382 567.826 177.43C567.97 177.454 568.126 177.598 568.294 177.862C568.534 178.318 568.618 178.858 568.546 179.482C568.498 180.082 568.318 180.61 568.006 181.066C567.766 181.402 567.55 181.93 567.358 182.65C567.19 183.346 567.022 184.222 566.854 185.278C566.734 185.806 566.602 186.43 566.458 187.15C566.338 187.846 566.206 188.626 566.062 189.49C565.966 189.73 565.834 190.102 565.666 190.606C565.498 191.086 565.39 191.47 565.342 191.758C565.318 191.854 565.246 192.046 565.126 192.334C565.006 192.622 564.886 192.898 564.766 193.162C564.646 193.45 564.562 193.642 564.514 193.738C563.578 195.682 562.51 197.17 561.31 198.202C560.11 199.234 558.802 199.798 557.386 199.894ZM560.122 189.454C559.858 189.454 559.582 189.31 559.294 189.022C559.03 188.734 558.85 188.506 558.754 188.338C558.658 188.098 558.538 187.87 558.394 187.654C558.25 187.438 558.142 187.174 558.07 186.862C558.022 186.55 558.046 186.166 558.142 185.71C558.238 185.398 558.37 184.954 558.538 184.378C558.73 183.778 558.934 183.13 559.15 182.434C559.39 181.738 559.63 181.054 559.87 180.382C560.134 179.686 560.374 179.074 560.59 178.546C560.806 177.994 560.998 177.598 561.166 177.358C561.31 177.166 561.466 177.046 561.634 176.998C561.826 176.95 562.018 176.974 562.21 177.07C562.402 177.142 562.57 177.298 562.714 177.538C562.978 177.874 563.086 178.162 563.038 178.402C562.99 178.642 562.774 179.11 562.39 179.806C562.294 180.07 562.174 180.358 562.03 180.67C561.886 180.958 561.814 181.15 561.814 181.246C561.79 181.294 561.742 181.462 561.67 181.75C561.622 182.014 561.562 182.266 561.49 182.506C561.418 182.746 561.346 182.866 561.274 182.866C561.178 182.962 561.07 183.238 560.95 183.694C560.83 184.126 560.722 184.618 560.626 185.17C560.53 185.698 560.47 186.166 560.446 186.574C560.422 186.958 560.458 187.15 560.554 187.15C561.298 187.15 562.066 186.862 562.858 186.286C563.674 185.71 564.49 184.87 565.306 183.766L565.918 186.322C565.582 186.49 565.27 186.67 564.982 186.862C564.694 187.03 564.43 187.234 564.19 187.474C564.118 187.57 563.95 187.702 563.686 187.87C563.422 188.038 563.158 188.194 562.894 188.338C562.654 188.458 562.498 188.518 562.426 188.518C562.426 188.518 562.39 188.53 562.318 188.554C562.27 188.554 562.246 188.602 562.246 188.698C562.246 188.746 562.09 188.842 561.778 188.986C561.466 189.106 561.142 189.214 560.806 189.31C560.47 189.406 560.242 189.454 560.122 189.454ZM582.658 198.094C582.202 198.286 581.698 198.346 581.146 198.274C580.618 198.226 580.09 198.07 579.562 197.806C579.058 197.542 578.602 197.218 578.194 196.834C578.026 196.666 577.846 196.402 577.654 196.042C577.486 195.706 577.354 195.382 577.258 195.07C577.186 194.758 577.198 194.578 577.294 194.53C577.39 194.458 577.522 194.434 577.69 194.458C577.858 194.482 578.014 194.518 578.158 194.566C578.326 194.638 578.41 194.722 578.41 194.818C578.554 194.938 578.806 195.118 579.166 195.358C579.526 195.622 579.802 195.778 579.994 195.826C580.498 195.994 580.87 196.066 581.11 196.042C581.35 196.018 581.566 195.934 581.758 195.79C582.142 195.454 582.442 195.046 582.658 194.566C582.874 194.086 583.102 193.426 583.342 192.586L583.45 192.118C583.642 191.23 583.858 190.282 584.098 189.274C584.338 188.266 584.542 187.474 584.71 186.898C584.83 186.346 584.866 185.974 584.818 185.782C584.794 185.59 584.686 185.626 584.494 185.89C584.398 185.914 584.266 185.962 584.098 186.034C583.954 186.106 583.786 186.19 583.594 186.286C583.306 186.43 583.018 186.574 582.73 186.718C582.442 186.838 582.202 186.922 582.01 186.97C581.818 186.97 581.638 186.982 581.47 187.006C581.302 187.006 581.218 187.006 581.218 187.006C581.026 187.126 580.678 187.114 580.174 186.97C579.694 186.802 579.262 186.562 578.878 186.25C578.662 185.962 578.506 185.746 578.41 185.602C578.314 185.434 578.254 185.266 578.23 185.098C578.206 184.906 578.194 184.618 578.194 184.234C578.17 183.85 578.35 183.298 578.734 182.578C579.142 181.834 579.634 181.138 580.21 180.49C580.666 180.034 581.254 179.566 581.974 179.086C582.694 178.606 583.414 178.21 584.134 177.898C584.878 177.586 585.49 177.442 585.97 177.466C586.21 177.49 586.438 177.526 586.654 177.574C586.87 177.598 587.11 177.706 587.374 177.898C587.71 178.066 587.95 178.246 588.094 178.438C588.238 178.63 588.43 179.002 588.67 179.554C588.814 179.938 588.922 180.322 588.994 180.706C589.066 181.066 589.102 181.414 589.102 181.75C589.102 182.11 589.054 182.434 588.958 182.722C588.862 183.01 588.73 183.238 588.562 183.406C588.514 183.406 588.454 183.418 588.382 183.442C588.334 183.442 588.286 183.454 588.238 183.478C588.094 183.526 587.974 183.55 587.878 183.55C587.806 183.55 587.722 183.634 587.626 183.802C587.53 183.946 587.458 184.138 587.41 184.378C587.386 184.522 587.35 184.666 587.302 184.81C587.278 184.954 587.242 185.086 587.194 185.206C587.146 185.326 587.098 185.434 587.05 185.53C587.026 185.602 587.014 185.662 587.014 185.71C587.014 185.782 587.002 185.842 586.978 185.89C586.954 185.938 586.918 185.998 586.87 186.07C586.798 186.19 586.726 186.346 586.654 186.538C586.606 186.706 586.582 186.886 586.582 187.078L586.438 187.474C586.366 187.714 586.294 187.93 586.222 188.122C586.174 188.314 586.15 188.434 586.15 188.482L586.006 189.202C585.958 189.37 585.898 189.526 585.826 189.67C585.778 189.79 585.73 189.982 585.682 190.246C585.634 190.486 585.574 190.882 585.502 191.434C585.022 193.498 584.542 195.046 584.062 196.078C583.582 197.134 583.114 197.806 582.658 198.094ZM580.174 185.026C580.798 185.266 581.446 185.29 582.118 185.098C582.79 184.906 583.558 184.474 584.422 183.802C584.974 183.394 585.43 182.926 585.79 182.398C586.174 181.846 586.45 181.282 586.618 180.706C586.738 180.346 586.774 180.094 586.726 179.95C586.678 179.782 586.522 179.686 586.258 179.662C585.85 179.566 585.334 179.638 584.71 179.878C584.086 180.094 583.45 180.406 582.802 180.814C582.682 180.982 582.538 181.138 582.37 181.282C582.202 181.426 582.046 181.546 581.902 181.642C581.782 181.714 581.722 181.75 581.722 181.75C581.698 181.798 581.662 181.858 581.614 181.93C581.59 182.002 581.53 182.062 581.434 182.11C581.194 182.326 580.954 182.65 580.714 183.082C580.474 183.514 580.294 183.922 580.174 184.306C580.078 184.69 580.078 184.93 580.174 185.026ZM593.187 189.382C592.731 188.974 592.383 188.554 592.143 188.122C591.927 187.69 591.759 187.006 591.639 186.07C591.591 185.638 591.639 185.074 591.783 184.378C591.927 183.658 592.131 182.902 592.395 182.11C592.659 181.318 592.959 180.598 593.295 179.95C593.631 179.278 593.967 178.774 594.303 178.438C594.591 178.078 594.819 177.886 594.987 177.862C595.179 177.814 595.515 177.898 595.995 178.114C596.259 178.426 596.391 178.762 596.391 179.122C596.391 179.482 596.247 179.89 595.959 180.346C595.479 180.994 595.059 181.81 594.699 182.794C594.363 183.754 594.135 184.618 594.015 185.386C593.775 186.202 593.667 186.754 593.691 187.042C593.715 187.33 593.931 187.522 594.339 187.618C594.795 187.714 595.335 187.546 595.959 187.114C596.583 186.658 597.195 186.034 597.795 185.242C598.395 184.426 598.875 183.538 599.235 182.578C599.379 182.242 599.487 181.846 599.559 181.39C599.655 180.934 599.751 180.598 599.847 180.382C599.967 179.902 600.135 179.554 600.351 179.338C600.567 179.098 600.795 178.966 601.035 178.942C601.275 178.894 601.479 178.942 601.647 179.086C601.863 179.182 601.995 179.302 602.043 179.446C602.091 179.566 602.091 179.902 602.043 180.454C602.043 181.342 601.851 182.098 601.467 182.722C601.083 183.346 600.759 184.006 600.495 184.702C600.279 185.206 599.955 185.77 599.523 186.394C599.115 187.018 598.659 187.582 598.155 188.086C597.675 188.59 597.207 188.938 596.751 189.13C596.079 189.562 595.479 189.778 594.951 189.778C594.447 189.754 593.859 189.622 593.187 189.382ZM604.028 190.066C603.836 189.874 603.692 189.634 603.596 189.346C603.524 189.058 603.5 188.77 603.524 188.482C603.548 188.194 603.608 187.954 603.704 187.762C603.704 187.57 603.728 187.426 603.776 187.33C603.848 187.21 603.872 187.102 603.848 187.006C603.824 186.91 603.848 186.742 603.92 186.502C603.992 186.262 604.064 186.034 604.136 185.818C604.304 185.434 604.484 184.978 604.676 184.45C604.868 183.898 605.048 183.358 605.216 182.83C605.384 182.302 605.528 181.846 605.648 181.462C605.768 181.078 605.84 180.838 605.864 180.742C605.864 180.454 606.056 180.298 606.44 180.274C606.728 180.178 606.944 180.178 607.088 180.274C607.232 180.346 607.424 180.574 607.664 180.958C607.856 181.15 607.928 181.438 607.88 181.822C607.832 182.206 607.676 182.686 607.412 183.262C607.316 183.454 607.196 183.73 607.052 184.09C606.932 184.45 606.848 184.774 606.8 185.062C606.704 185.254 606.584 185.53 606.44 185.89C606.32 186.226 606.212 186.55 606.116 186.862C606.068 186.982 606.02 187.162 605.972 187.402C605.924 187.618 605.864 187.858 605.792 188.122C605.72 188.362 605.624 188.578 605.504 188.77C605.288 189.754 605.084 190.33 604.892 190.498C604.724 190.666 604.436 190.522 604.028 190.066ZM607.52 175.45C607.4 175.33 607.292 175.162 607.196 174.946C607.1 174.706 607.04 174.49 607.016 174.298C606.992 174.082 607.016 173.974 607.088 173.974C607.28 173.95 607.508 173.746 607.772 173.362C608.036 172.978 608.144 172.642 608.096 172.354C608.096 172.258 608.132 172.174 608.204 172.102C608.276 172.006 608.36 171.946 608.456 171.922C608.744 171.73 609.02 171.706 609.284 171.85C609.572 171.97 609.836 172.222 610.076 172.606C610.292 173.062 610.352 173.446 610.256 173.758C610.16 174.046 609.896 174.454 609.464 174.982C609.104 175.462 608.768 175.726 608.456 175.774C608.168 175.822 607.856 175.714 607.52 175.45ZM619.418 191.902C619.106 191.974 618.842 191.926 618.626 191.758C618.434 191.614 618.29 191.398 618.194 191.11C618.002 190.558 617.858 189.958 617.762 189.31C617.69 188.638 617.678 188.05 617.726 187.546L617.798 186.79L616.394 187.906C615.578 188.626 614.786 189.142 614.018 189.454C613.274 189.766 612.614 189.922 612.038 189.922C611.774 189.874 611.51 189.778 611.246 189.634C610.982 189.49 610.742 189.31 610.526 189.094C610.334 188.878 610.178 188.65 610.058 188.41C609.914 188.074 609.866 187.618 609.914 187.042C609.986 186.466 610.13 185.842 610.346 185.17C610.586 184.474 610.874 183.802 611.21 183.154C611.57 182.482 611.978 181.894 612.434 181.39C613.226 180.19 614.078 179.458 614.99 179.194C615.902 178.93 616.802 179.062 617.69 179.59C618.314 179.854 618.698 179.974 618.842 179.95C619.01 179.926 619.154 179.65 619.274 179.122C619.37 178.738 619.466 178.354 619.562 177.97C619.658 177.562 619.814 177.022 620.03 176.35C620.63 174.526 621.146 173.098 621.578 172.066C622.034 171.034 622.442 170.134 622.802 169.366C623.066 168.814 623.282 168.478 623.45 168.358C623.642 168.214 623.834 168.154 624.026 168.178C624.29 168.178 624.53 168.274 624.746 168.466C624.962 168.658 625.13 168.922 625.25 169.258C625.346 169.474 625.382 169.666 625.358 169.834C625.358 169.978 625.286 170.182 625.142 170.446C624.83 171.022 624.458 171.79 624.026 172.75C623.618 173.686 623.198 174.718 622.766 175.846C622.358 176.974 621.974 178.09 621.614 179.194C621.254 180.298 620.954 181.27 620.714 182.11C620.57 182.638 620.438 183.31 620.318 184.126C620.222 184.942 620.138 185.782 620.066 186.646C619.994 187.486 619.946 188.242 619.922 188.914C619.922 189.562 619.946 189.982 619.994 190.174C620.138 190.654 620.198 191.014 620.174 191.254C620.174 191.494 620.114 191.65 619.994 191.722C619.874 191.818 619.682 191.878 619.418 191.902ZM613.334 187.906C613.67 187.834 613.994 187.702 614.306 187.51C614.642 187.318 614.99 187.09 615.35 186.826C616.07 186.274 616.694 185.77 617.222 185.314C617.75 184.858 618.098 184.162 618.266 183.226C618.314 182.77 618.266 182.41 618.122 182.146C618.002 181.858 617.798 181.594 617.51 181.354C617.222 181.162 616.826 181.09 616.322 181.138C615.842 181.162 615.338 181.414 614.81 181.894C614.234 182.422 613.67 183.13 613.118 184.018C612.59 184.906 612.194 185.998 611.93 187.294C611.882 187.534 611.954 187.726 612.146 187.87C612.338 188.014 612.734 188.026 613.334 187.906ZM627.215 191.326C626.159 191.326 625.295 190.93 624.623 190.138C623.951 189.322 623.627 188.314 623.651 187.114C623.699 186.25 623.867 185.326 624.155 184.342C624.467 183.334 624.875 182.374 625.379 181.462C625.883 180.526 626.435 179.71 627.035 179.014C627.635 178.318 628.259 177.826 628.907 177.538C629.147 177.418 629.399 177.322 629.663 177.25C629.951 177.178 630.239 177.142 630.527 177.142C630.791 177.142 631.067 177.19 631.355 177.286C631.643 177.358 631.883 177.442 632.075 177.538C632.483 177.706 632.795 177.91 633.011 178.15C633.227 178.39 633.419 178.762 633.587 179.266C633.659 179.722 633.695 180.046 633.695 180.238C633.695 180.43 633.635 180.718 633.515 181.102C633.227 181.966 632.855 182.71 632.399 183.334C631.943 183.958 631.331 184.486 630.563 184.918C630.371 185.038 630.143 185.134 629.879 185.206C629.639 185.254 629.387 185.278 629.123 185.278C628.643 185.278 628.175 185.194 627.719 185.026C627.287 184.834 626.939 184.558 626.675 184.198L626.423 183.91L626.315 184.198C626.075 184.846 625.883 185.446 625.739 185.998C625.619 186.55 625.559 187.054 625.559 187.51C625.559 187.798 625.583 188.074 625.631 188.338C625.703 188.602 625.799 188.83 625.919 189.022C626.015 189.166 626.171 189.274 626.387 189.346C626.627 189.394 626.879 189.418 627.143 189.418C627.311 189.418 627.479 189.418 627.647 189.418C627.839 189.394 628.019 189.346 628.187 189.274C628.595 189.13 628.919 188.974 629.159 188.806C629.423 188.638 629.687 188.458 629.951 188.266L630.095 188.194H630.059C630.347 188.05 630.599 187.906 630.815 187.762C631.055 187.618 631.175 187.546 631.175 187.546C631.271 187.546 631.367 187.486 631.463 187.366C631.655 187.27 631.895 187.306 632.183 187.474C632.495 187.642 632.651 187.858 632.651 188.122C632.627 188.242 632.519 188.434 632.327 188.698C632.135 188.938 631.919 189.166 631.679 189.382C631.463 189.598 631.283 189.718 631.139 189.742C631.115 189.766 631.031 189.814 630.887 189.886C630.743 189.934 630.647 189.982 630.599 190.03H630.635C630.419 190.318 630.203 190.462 629.987 190.462H629.699C629.603 190.63 629.291 190.822 628.763 191.038C628.235 191.23 627.719 191.326 627.215 191.326ZM628.835 183.406C629.267 183.406 629.639 183.286 629.951 183.046C630.287 182.782 630.575 182.494 630.815 182.182C631.295 181.534 631.571 180.91 631.643 180.31C631.739 179.686 631.667 179.254 631.427 179.014C631.283 178.942 631.151 178.906 631.031 178.906C630.935 178.882 630.731 178.918 630.419 179.014C630.203 179.062 629.903 179.242 629.519 179.554C629.135 179.866 628.751 180.214 628.367 180.598C628.007 180.982 627.731 181.306 627.539 181.57L627.071 182.326C627.263 182.254 627.443 182.218 627.611 182.218C627.803 182.194 627.911 182.206 627.935 182.254C627.935 182.47 627.971 182.674 628.043 182.866C628.139 183.034 628.247 183.166 628.367 183.262C628.511 183.358 628.667 183.406 628.835 183.406Z"
      fill="#F7ECD8" />
    <g id="dramate-logo-id__notebook" class="dramate-logo__notebook">
      <path id="dramate-logo-id__notebook-cover" class="dramate-logo__notebook-cover"
        d="M157.574 62.3654L157.449 67.0562L172.383 63.9685V59.8953L157.574 62.3654ZM77.0697 79.7126V74.7224C71.6616 75.5583 60.0406 77.7165 56.797 79.7126C53.5534 81.7087 52.4306 83.1434 52.4306 89.3812V213.201C52.3245 214.554 53.4286 218.378 58.6683 222.869C61.151 225.003 63.9205 226.325 66.4219 227.117C69.1977 228.003 71.6491 228.227 73.0152 228.171L181.552 211.017C181.939 210.943 182.332 210.899 182.737 210.855C183.954 210.724 185.232 210.587 186.542 209.458C188.133 208.098 188.121 206.888 188.102 205.503C188.102 205.372 188.102 205.235 188.102 205.092C188.414 163.299 188.85 79.2136 188.102 77.2175C187.353 75.2214 184.671 74.7224 183.424 74.7224C178.683 75.6207 132.586 83.6549 126.66 84.3909C114.621 85.9005 104.528 87.7094 96.0512 89.2377C82.3968 91.6891 72.9341 93.392 66.2597 91.8326C64.2075 91.346 62.4172 90.5601 60.8515 89.3812C52.8735 83.3991 68.131 80.7543 77.0697 79.7126Z"
        fill="#B7D58B" />
      <path id="dramate-logo-id__notebook-cover--highlight" class="dramate-logo__notebook-cover--highlight"
        d="M67.0781 227.117C69.8539 228.003 71.1389 228.134 72.2742 228.196L72.1556 96.6042C72.5486 96.5294 178.784 80.0367 188.515 78.5709C188.471 77.6913 188.421 77.1611 188.371 77.0239C187.623 75.0278 185.327 74.7222 184.08 74.7222C179.339 75.6204 133.242 83.6546 127.316 84.3907C115.277 85.9002 105.185 87.7092 96.7075 89.2374C83.053 91.6889 73.5903 93.3918 66.9159 91.8323C66.9097 103.622 66.9097 211.348 67.0781 227.117Z"
        fill="#cee3b0" />
      <path id="dramate-logo-id__notebook--tab-3" class="dramate-logo__notebook--tab dramate-logo__notebook--tab-3"
        d="M132.593 56.2023L152.235 53.1084L152.822 76.5125L132.842 79.9432L132.593 56.2023Z" fill="#16AE9F" />
      <path id="dramate-logo-id__notebook--tab-2" class="dramate-logo__notebook--tab dramate-logo__notebook--tab-2"
        d="M107.645 60.4689L127.288 57.375L127.874 80.7791L107.895 84.2098L107.645 60.4689Z" fill="#F0BB54" />
      <path id="dramate-logo-id__notebook--tab-1" class="dramate-logo__notebook--tab dramate-logo__notebook--tab-1"
        d="M82.6973 64.9789L102.346 61.885L102.926 85.2891L82.9468 88.7199L82.6973 64.9789Z" fill="#E54B6D" />
      <path id="dramate-logo-id__notebook-page" class="dramate-logo__notebook--page"
        d="M158.226 70.1341L158.164 75.2178L174.38 72.1669V66.8655L158.226 70.1341Z" fill="#FCFBFB" />
      <g id="dramate-logo-id__notebook-mask" class="dramate-logo__notebook--mask">
        <path id="dramate-logo-id__notebook--mask__main-face" class="dramate-logo__notebook--mask--primary"
          d="M88.955 115.08C88.955 115.08 102.983 115.336 113.217 112.811C123.456 110.291 134.194 104.994 134.194 104.994C134.194 104.994 141.273 112.183 150.622 116.848C159.975 121.512 174.38 122.521 174.38 122.521C174.38 122.521 171.98 144.842 166.546 160.853C161.112 176.868 156.69 182.039 147.844 189.349C138.999 196.664 121.937 197.924 121.937 197.924C121.937 197.924 111.194 194.52 102.475 184.308C93.7552 174.092 89.7147 168.419 88.7034 154.421C87.6921 140.429 88.955 115.08 88.955 115.08Z"
          fill="#282426" />
        <path id="dramate-logo-id__notebook--mask__tragedy-face" class="dramate-logo__notebook--mask--secondary"
          d="M134.648 109.36C134.648 109.36 141.997 116.31 151.626 120.482C161.255 124.654 171.262 124.78 171.262 124.78C171.262 124.78 166.702 150.945 162.899 162.319C159.101 173.693 151.5 183.809 143.263 188.485C135.032 193.16 122.614 194.806 122.614 194.806L125.403 173.568C125.403 173.568 128.607 174.073 134.33 175.132C140.181 176.616 144.845 177.676 144.845 177.676C144.845 177.676 145.81 170.075 139.747 167.022C133.77 165.595 126.795 163.96 126.795 163.96L134.648 109.36Z"
          fill="#F7ECD8" />
        <path id="dramate-logo-id__notebook--mask__tragedy-eye" class="dramate-logo__notebook--mask--primary"
          d="M158.879 145.233C158.879 145.233 153.909 144.438 150.448 142.706C146.98 140.977 142.936 136.004 142.936 136.004C142.936 136.004 140.92 145.223 146.521 148.355C152.123 151.488 158.879 145.233 158.879 145.233Z"
          fill="#282426" />
        <path id="dramate-logo-id__notebook--mask__comedy-mouth" class="dramate-logo__notebook--mask--secondary"
          d="M126.795 163.964L125.437 173.543C125.437 173.543 118.8 173.021 113.863 166.809C108.922 160.598 110.336 155.831 110.336 155.831C110.336 155.831 113.851 160.151 117.551 161.284C121.251 162.416 126.795 163.964 126.795 163.964Z"
          fill="#F7ECD8" />
        <path id="dramate-logo-id__notebook--mask__comedy-eye" class="dramate-logo__notebook--mask--secondary"
          d="M107.562 137.457C103.635 137.223 98.6785 138.448 98.6785 138.448C98.6785 138.448 102.51 129.973 108.989 130.665C115.468 131.357 117.245 140.71 117.245 140.71C117.245 140.71 111.485 137.695 107.562 137.457Z"
          fill="#F7ECD8" />
      </g>
    </g>
  </g>
  <defs>
    <clipPath id="clip0_1584_58">
      <rect width="686" height="281" fill="white" />
    </clipPath>
  </defs>
</svg>